<svg width="458" height="455" viewBox="0 0 458 455" fill="none" xmlns="http://www.w3.org/2000/svg">
<path d="M328.131 25.2866C283.395 1.37587 231.926 -5.64979 182.676 5.43161C133.425 16.513 89.5097 45.0003 58.5675 85.9384C27.6253 126.877 11.6145 177.675 13.3198 229.499C15.0252 281.322 34.3388 330.891 67.9014 369.584L135.627 307.439C116.197 285.039 105.015 256.343 104.028 226.341C103.041 196.339 112.31 166.931 130.223 143.231C148.136 119.531 173.56 103.039 202.072 96.6238C230.584 90.2086 260.381 94.2759 286.279 108.118L328.131 25.2866Z" fill="#FF9431"/>
<path d="M398.773 365.59C417.608 339.538 430.649 309.548 436.976 277.741C443.302 245.934 442.759 213.087 435.384 181.519C428.01 149.952 413.985 120.436 394.3 95.0573C374.614 69.6784 349.75 49.0562 321.463 34.6481L286.23 107.822C304.098 116.923 319.804 129.949 332.238 145.98C344.673 162.011 353.532 180.656 358.19 200.596C362.848 220.536 363.191 241.285 359.195 261.376C355.199 281.467 346.961 300.411 335.064 316.867L398.773 365.59Z" fill="#FFB36D"/>
<path d="M181.942 447.011C221.372 453.412 261.756 448.424 298.592 432.605C335.428 416.786 367.269 390.756 390.567 357.417L335.436 316.663C319.477 339.5 297.666 357.331 272.432 368.167C247.199 379.004 219.536 382.42 192.525 378.036L181.942 447.011Z" fill="#FFC997"/>
<path d="M63.6349 369.82C95.6988 405.417 138.298 429.122 184.811 437.252L195.102 374.961C161.937 369.164 131.562 352.261 108.699 326.88L63.6349 369.82Z" fill="#FFD9B5"/>
<ellipse cx="226.173" cy="228.409" rx="152.859" ry="157.219" fill="#FDFBFA"/>
<path d="M226.173 391.627C314.066 391.627 385.032 318.392 385.032 228.409C385.032 138.426 314.066 65.1899 226.173 65.1899C138.279 65.1899 67.3138 138.426 67.3138 228.409C67.3138 318.392 138.279 391.627 226.173 391.627Z" stroke="white" stroke-opacity="0.29" stroke-width="12"/>
<path d="M175.048 193.468V192.3H182.36V193.468H179.432V203.388H177.976V193.468H175.048ZM192.327 201.004C193.105 200.204 193.495 199.148 193.495 197.836C193.495 196.524 193.105 195.473 192.327 194.684C191.548 193.884 190.551 193.484 189.335 193.484C188.129 193.484 187.132 193.884 186.343 194.684C185.564 195.473 185.175 196.524 185.175 197.836C185.175 199.148 185.569 200.204 186.359 201.004C187.148 201.804 188.145 202.204 189.351 202.204C190.556 202.204 191.548 201.804 192.327 201.004ZM189.351 203.5C187.761 203.5 186.423 202.966 185.335 201.9C184.247 200.822 183.703 199.468 183.703 197.836C183.703 196.193 184.247 194.844 185.335 193.788C186.423 192.721 187.761 192.188 189.351 192.188C190.94 192.188 192.273 192.721 193.351 193.788C194.439 194.844 194.983 196.193 194.983 197.836C194.983 199.478 194.439 200.833 193.351 201.9C192.273 202.966 190.94 203.5 189.351 203.5ZM196.298 193.468V192.3H203.61V193.468H200.682V203.388H199.226V193.468H196.298ZM213.177 203.388L212.313 200.956H207.385L206.521 203.388H205.033L209.065 192.3H210.665L214.681 203.388H213.177ZM207.801 199.804H211.897L209.849 194.076L207.801 199.804ZM216.591 192.3H218.047V202.268H221.935V203.388H216.591V192.3ZM229.431 195.26C229.431 195.665 229.543 196.001 229.767 196.268C229.991 196.534 230.279 196.732 230.631 196.86C230.983 196.988 231.373 197.1 231.799 197.196C232.237 197.292 232.669 197.404 233.095 197.532C233.533 197.649 233.927 197.804 234.279 197.996C234.631 198.188 234.919 198.476 235.143 198.86C235.367 199.244 235.479 199.718 235.479 200.284C235.479 201.148 235.149 201.9 234.487 202.54C233.826 203.18 232.93 203.5 231.799 203.5C230.679 203.5 229.767 203.244 229.063 202.732C228.359 202.209 228.007 201.505 228.007 200.62H229.559C229.602 201.121 229.799 201.526 230.151 201.836C230.514 202.145 231.047 202.3 231.751 202.3C232.455 202.3 233.015 202.118 233.431 201.756C233.847 201.393 234.055 200.972 234.055 200.492C234.055 200.001 233.943 199.628 233.719 199.372C233.495 199.105 233.207 198.908 232.855 198.78C232.503 198.652 232.109 198.545 231.671 198.46C231.245 198.364 230.813 198.252 230.375 198.124C229.949 197.996 229.559 197.836 229.207 197.644C228.855 197.441 228.567 197.148 228.343 196.764C228.119 196.369 228.007 195.884 228.007 195.308C228.007 194.369 228.338 193.617 228.999 193.052C229.671 192.476 230.541 192.188 231.607 192.188C232.685 192.188 233.538 192.438 234.167 192.94C234.807 193.43 235.175 194.113 235.271 194.988H233.655C233.613 194.55 233.405 194.177 233.031 193.868C232.669 193.558 232.173 193.404 231.543 193.404C230.925 193.404 230.418 193.564 230.023 193.884C229.629 194.193 229.431 194.652 229.431 195.26ZM237.622 199.5V192.3H239.094V199.5C239.094 200.417 239.334 201.105 239.814 201.564C240.305 202.012 240.977 202.236 241.83 202.236C242.683 202.236 243.355 202.012 243.846 201.564C244.337 201.105 244.582 200.417 244.582 199.5V192.3H246.038V199.5C246.038 200.801 245.638 201.793 244.838 202.476C244.049 203.158 243.041 203.5 241.814 203.5C240.598 203.5 239.595 203.158 238.806 202.476C238.017 201.793 237.622 200.801 237.622 199.5ZM252.004 192.3C253.252 192.3 254.201 192.604 254.852 193.212C255.513 193.82 255.844 194.598 255.844 195.548C255.844 196.497 255.524 197.281 254.884 197.9C254.254 198.508 253.294 198.812 252.004 198.812H249.86V203.388H248.404V192.3H252.004ZM249.86 197.66H252.004C252.804 197.66 253.396 197.478 253.78 197.116C254.174 196.742 254.372 196.225 254.372 195.564C254.372 194.166 253.582 193.468 252.004 193.468H249.86V197.66ZM261.254 192.3C262.502 192.3 263.451 192.604 264.102 193.212C264.763 193.82 265.094 194.598 265.094 195.548C265.094 196.497 264.774 197.281 264.134 197.9C263.504 198.508 262.544 198.812 261.254 198.812H259.11V203.388H257.654V192.3H261.254ZM259.11 197.66H261.254C262.054 197.66 262.646 197.478 263.03 197.116C263.424 196.742 263.622 196.225 263.622 195.564C263.622 194.166 262.832 193.468 261.254 193.468H259.11V197.66ZM266.904 192.3H268.36V202.268H272.248V203.388H266.904V192.3ZM277.875 203.388H276.419V199.196L272.803 192.3H274.403L277.139 197.852L279.859 192.3H281.475L277.875 199.196V203.388Z" fill="#72797D"/>
<path d="M142.622 237.26V229.052L137.222 237.26H142.622ZM142.379 244.388V240.554H132.956V237.584L141.758 224.948H146.159V237.26H148.535V240.554H146.159V244.388H142.379ZM150.401 241.931H153.722C154.388 243.785 154.532 245.387 154.154 246.737C153.956 247.403 153.569 247.934 152.993 248.33C152.435 248.726 151.706 248.924 150.806 248.924V247.412C151.274 247.412 151.616 247.304 151.832 247.088C152.048 246.872 152.156 246.494 152.156 245.954V245.441H150.401V241.931ZM156.874 234.56C156.874 228.026 159.295 224.759 164.137 224.759C168.997 224.759 171.427 228.026 171.427 234.56C171.427 241.076 168.997 244.334 164.137 244.334C159.295 244.334 156.874 241.076 156.874 234.56ZM165.757 228.62C165.307 228.386 164.776 228.269 164.164 228.269C163.552 228.269 163.021 228.386 162.571 228.62C162.121 228.854 161.77 229.151 161.518 229.511C161.284 229.871 161.095 230.348 160.951 230.942C160.807 231.518 160.708 232.076 160.654 232.616C160.618 233.156 160.6 233.795 160.6 234.533C160.6 235.271 160.618 235.91 160.654 236.45C160.708 236.99 160.807 237.557 160.951 238.151C161.095 238.727 161.284 239.204 161.518 239.582C161.77 239.942 162.121 240.239 162.571 240.473C163.021 240.707 163.552 240.824 164.164 240.824C164.776 240.824 165.307 240.707 165.757 240.473C166.207 240.239 166.549 239.942 166.783 239.582C167.035 239.204 167.233 238.727 167.377 238.151C167.521 237.557 167.611 236.99 167.647 236.45C167.701 235.91 167.728 235.271 167.728 234.533C167.728 233.795 167.701 233.156 167.647 232.616C167.611 232.076 167.521 231.518 167.377 230.942C167.233 230.348 167.035 229.871 166.783 229.511C166.549 229.151 166.207 228.854 165.757 228.62ZM174.329 234.56C174.329 228.026 176.75 224.759 181.592 224.759C186.452 224.759 188.882 228.026 188.882 234.56C188.882 241.076 186.452 244.334 181.592 244.334C176.75 244.334 174.329 241.076 174.329 234.56ZM183.212 228.62C182.762 228.386 182.231 228.269 181.619 228.269C181.007 228.269 180.476 228.386 180.026 228.62C179.576 228.854 179.225 229.151 178.973 229.511C178.739 229.871 178.55 230.348 178.406 230.942C178.262 231.518 178.163 232.076 178.109 232.616C178.073 233.156 178.055 233.795 178.055 234.533C178.055 235.271 178.073 235.91 178.109 236.45C178.163 236.99 178.262 237.557 178.406 238.151C178.55 238.727 178.739 239.204 178.973 239.582C179.225 239.942 179.576 240.239 180.026 240.473C180.476 240.707 181.007 240.824 181.619 240.824C182.231 240.824 182.762 240.707 183.212 240.473C183.662 240.239 184.004 239.942 184.238 239.582C184.49 239.204 184.688 238.727 184.832 238.151C184.976 237.557 185.066 236.99 185.102 236.45C185.156 235.91 185.183 235.271 185.183 234.533C185.183 233.795 185.156 233.156 185.102 232.616C185.066 232.076 184.976 231.518 184.832 230.942C184.688 230.348 184.49 229.871 184.238 229.511C184.004 229.151 183.662 228.854 183.212 228.62ZM191.784 234.56C191.784 228.026 194.205 224.759 199.047 224.759C203.907 224.759 206.337 228.026 206.337 234.56C206.337 241.076 203.907 244.334 199.047 244.334C194.205 244.334 191.784 241.076 191.784 234.56ZM200.667 228.62C200.217 228.386 199.686 228.269 199.074 228.269C198.462 228.269 197.931 228.386 197.481 228.62C197.031 228.854 196.68 229.151 196.428 229.511C196.194 229.871 196.005 230.348 195.861 230.942C195.717 231.518 195.618 232.076 195.564 232.616C195.528 233.156 195.51 233.795 195.51 234.533C195.51 235.271 195.528 235.91 195.564 236.45C195.618 236.99 195.717 237.557 195.861 238.151C196.005 238.727 196.194 239.204 196.428 239.582C196.68 239.942 197.031 240.239 197.481 240.473C197.931 240.707 198.462 240.824 199.074 240.824C199.686 240.824 200.217 240.707 200.667 240.473C201.117 240.239 201.459 239.942 201.693 239.582C201.945 239.204 202.143 238.727 202.287 238.151C202.431 237.557 202.521 236.99 202.557 236.45C202.611 235.91 202.638 235.271 202.638 234.533C202.638 233.795 202.611 233.156 202.557 232.616C202.521 232.076 202.431 231.518 202.287 230.942C202.143 230.348 201.945 229.871 201.693 229.511C201.459 229.151 201.117 228.854 200.667 228.62ZM208.699 241.931H212.02C212.686 243.785 212.83 245.387 212.452 246.737C212.254 247.403 211.867 247.934 211.291 248.33C210.733 248.726 210.004 248.924 209.104 248.924V247.412C209.572 247.412 209.914 247.304 210.13 247.088C210.346 246.872 210.454 246.494 210.454 245.954V245.441H208.699V241.931ZM215.172 234.56C215.172 228.026 217.593 224.759 222.435 224.759C227.295 224.759 229.725 228.026 229.725 234.56C229.725 241.076 227.295 244.334 222.435 244.334C217.593 244.334 215.172 241.076 215.172 234.56ZM224.055 228.62C223.605 228.386 223.074 228.269 222.462 228.269C221.85 228.269 221.319 228.386 220.869 228.62C220.419 228.854 220.068 229.151 219.816 229.511C219.582 229.871 219.393 230.348 219.249 230.942C219.105 231.518 219.006 232.076 218.952 232.616C218.916 233.156 218.898 233.795 218.898 234.533C218.898 235.271 218.916 235.91 218.952 236.45C219.006 236.99 219.105 237.557 219.249 238.151C219.393 238.727 219.582 239.204 219.816 239.582C220.068 239.942 220.419 240.239 220.869 240.473C221.319 240.707 221.85 240.824 222.462 240.824C223.074 240.824 223.605 240.707 224.055 240.473C224.505 240.239 224.847 239.942 225.081 239.582C225.333 239.204 225.531 238.727 225.675 238.151C225.819 237.557 225.909 236.99 225.945 236.45C225.999 235.91 226.026 235.271 226.026 234.533C226.026 233.795 225.999 233.156 225.945 232.616C225.909 232.076 225.819 231.518 225.675 230.942C225.531 230.348 225.333 229.871 225.081 229.511C224.847 229.151 224.505 228.854 224.055 228.62ZM232.627 234.56C232.627 228.026 235.048 224.759 239.89 224.759C244.75 224.759 247.18 228.026 247.18 234.56C247.18 241.076 244.75 244.334 239.89 244.334C235.048 244.334 232.627 241.076 232.627 234.56ZM241.51 228.62C241.06 228.386 240.529 228.269 239.917 228.269C239.305 228.269 238.774 228.386 238.324 228.62C237.874 228.854 237.523 229.151 237.271 229.511C237.037 229.871 236.848 230.348 236.704 230.942C236.56 231.518 236.461 232.076 236.407 232.616C236.371 233.156 236.353 233.795 236.353 234.533C236.353 235.271 236.371 235.91 236.407 236.45C236.461 236.99 236.56 237.557 236.704 238.151C236.848 238.727 237.037 239.204 237.271 239.582C237.523 239.942 237.874 240.239 238.324 240.473C238.774 240.707 239.305 240.824 239.917 240.824C240.529 240.824 241.06 240.707 241.51 240.473C241.96 240.239 242.302 239.942 242.536 239.582C242.788 239.204 242.986 238.727 243.13 238.151C243.274 237.557 243.364 236.99 243.4 236.45C243.454 235.91 243.481 235.271 243.481 234.533C243.481 233.795 243.454 233.156 243.4 232.616C243.364 232.076 243.274 231.518 243.13 230.942C242.986 230.348 242.788 229.871 242.536 229.511C242.302 229.151 241.96 228.854 241.51 228.62ZM250.082 234.56C250.082 228.026 252.503 224.759 257.345 224.759C262.205 224.759 264.635 228.026 264.635 234.56C264.635 241.076 262.205 244.334 257.345 244.334C252.503 244.334 250.082 241.076 250.082 234.56ZM258.965 228.62C258.515 228.386 257.984 228.269 257.372 228.269C256.76 228.269 256.229 228.386 255.779 228.62C255.329 228.854 254.978 229.151 254.726 229.511C254.492 229.871 254.303 230.348 254.159 230.942C254.015 231.518 253.916 232.076 253.862 232.616C253.826 233.156 253.808 233.795 253.808 234.533C253.808 235.271 253.826 235.91 253.862 236.45C253.916 236.99 254.015 237.557 254.159 238.151C254.303 238.727 254.492 239.204 254.726 239.582C254.978 239.942 255.329 240.239 255.779 240.473C256.229 240.707 256.76 240.824 257.372 240.824C257.984 240.824 258.515 240.707 258.965 240.473C259.415 240.239 259.757 239.942 259.991 239.582C260.243 239.204 260.441 238.727 260.585 238.151C260.729 237.557 260.819 236.99 260.855 236.45C260.909 235.91 260.936 235.271 260.936 234.533C260.936 233.795 260.909 233.156 260.855 232.616C260.819 232.076 260.729 231.518 260.585 230.942C260.441 230.348 260.243 229.871 259.991 229.511C259.757 229.151 259.415 228.854 258.965 228.62ZM266.997 241.931H270.318C270.984 243.785 271.128 245.387 270.75 246.737C270.552 247.403 270.165 247.934 269.589 248.33C269.031 248.726 268.302 248.924 267.402 248.924V247.412C267.87 247.412 268.212 247.304 268.428 247.088C268.644 246.872 268.752 246.494 268.752 245.954V245.441H266.997V241.931ZM273.47 234.56C273.47 228.026 275.891 224.759 280.733 224.759C285.593 224.759 288.023 228.026 288.023 234.56C288.023 241.076 285.593 244.334 280.733 244.334C275.891 244.334 273.47 241.076 273.47 234.56ZM282.353 228.62C281.903 228.386 281.372 228.269 280.76 228.269C280.148 228.269 279.617 228.386 279.167 228.62C278.717 228.854 278.366 229.151 278.114 229.511C277.88 229.871 277.691 230.348 277.547 230.942C277.403 231.518 277.304 232.076 277.25 232.616C277.214 233.156 277.196 233.795 277.196 234.533C277.196 235.271 277.214 235.91 277.25 236.45C277.304 236.99 277.403 237.557 277.547 238.151C277.691 238.727 277.88 239.204 278.114 239.582C278.366 239.942 278.717 240.239 279.167 240.473C279.617 240.707 280.148 240.824 280.76 240.824C281.372 240.824 281.903 240.707 282.353 240.473C282.803 240.239 283.145 239.942 283.379 239.582C283.631 239.204 283.829 238.727 283.973 238.151C284.117 237.557 284.207 236.99 284.243 236.45C284.297 235.91 284.324 235.271 284.324 234.533C284.324 233.795 284.297 233.156 284.243 232.616C284.207 232.076 284.117 231.518 283.973 230.942C283.829 230.348 283.631 229.871 283.379 229.511C283.145 229.151 282.803 228.854 282.353 228.62ZM290.925 234.56C290.925 228.026 293.346 224.759 298.188 224.759C303.048 224.759 305.478 228.026 305.478 234.56C305.478 241.076 303.048 244.334 298.188 244.334C293.346 244.334 290.925 241.076 290.925 234.56ZM299.808 228.62C299.358 228.386 298.827 228.269 298.215 228.269C297.603 228.269 297.072 228.386 296.622 228.62C296.172 228.854 295.821 229.151 295.569 229.511C295.335 229.871 295.146 230.348 295.002 230.942C294.858 231.518 294.759 232.076 294.705 232.616C294.669 233.156 294.651 233.795 294.651 234.533C294.651 235.271 294.669 235.91 294.705 236.45C294.759 236.99 294.858 237.557 295.002 238.151C295.146 238.727 295.335 239.204 295.569 239.582C295.821 239.942 296.172 240.239 296.622 240.473C297.072 240.707 297.603 240.824 298.215 240.824C298.827 240.824 299.358 240.707 299.808 240.473C300.258 240.239 300.6 239.942 300.834 239.582C301.086 239.204 301.284 238.727 301.428 238.151C301.572 237.557 301.662 236.99 301.698 236.45C301.752 235.91 301.779 235.271 301.779 234.533C301.779 233.795 301.752 233.156 301.698 232.616C301.662 232.076 301.572 231.518 301.428 230.942C301.284 230.348 301.086 229.871 300.834 229.511C300.6 229.151 300.258 228.854 299.808 228.62ZM308.38 234.56C308.38 228.026 310.801 224.759 315.643 224.759C320.503 224.759 322.933 228.026 322.933 234.56C322.933 241.076 320.503 244.334 315.643 244.334C310.801 244.334 308.38 241.076 308.38 234.56ZM317.263 228.62C316.813 228.386 316.282 228.269 315.67 228.269C315.058 228.269 314.527 228.386 314.077 228.62C313.627 228.854 313.276 229.151 313.024 229.511C312.79 229.871 312.601 230.348 312.457 230.942C312.313 231.518 312.214 232.076 312.16 232.616C312.124 233.156 312.106 233.795 312.106 234.533C312.106 235.271 312.124 235.91 312.16 236.45C312.214 236.99 312.313 237.557 312.457 238.151C312.601 238.727 312.79 239.204 313.024 239.582C313.276 239.942 313.627 240.239 314.077 240.473C314.527 240.707 315.058 240.824 315.67 240.824C316.282 240.824 316.813 240.707 317.263 240.473C317.713 240.239 318.055 239.942 318.289 239.582C318.541 239.204 318.739 238.727 318.883 238.151C319.027 237.557 319.117 236.99 319.153 236.45C319.207 235.91 319.234 235.271 319.234 234.533C319.234 233.795 319.207 233.156 319.153 232.616C319.117 232.076 319.027 231.518 318.883 230.942C318.739 230.348 318.541 229.871 318.289 229.511C318.055 229.151 317.713 228.854 317.263 228.62Z" fill="#FF9431"/>
<g filter="url(#filter0_dd_364_19943)">
<rect x="50" y="39" width="89" height="59" rx="5" fill="white"/>
<circle cx="66.5" cy="68.5" r="4" fill="#FF9431"/>
<path d="M85.038 58.333C85.3673 58.385 85.6663 58.5193 85.935 58.736C86.2123 58.9527 86.429 59.2213 86.585 59.542C86.7497 59.8627 86.832 60.205 86.832 60.569C86.832 61.0283 86.715 61.4443 86.481 61.817C86.247 62.181 85.9047 62.4713 85.454 62.688C85.012 62.896 84.4877 63 83.881 63H80.501V53.939H83.751C84.3663 53.939 84.8907 54.043 85.324 54.251C85.7573 54.4503 86.0823 54.7233 86.299 55.07C86.5157 55.4167 86.624 55.8067 86.624 56.24C86.624 56.7773 86.4767 57.2237 86.182 57.579C85.896 57.9257 85.5147 58.177 85.038 58.333ZM81.684 57.852H83.673C84.2277 57.852 84.6567 57.722 84.96 57.462C85.2633 57.202 85.415 56.8423 85.415 56.383C85.415 55.9237 85.2633 55.564 84.96 55.304C84.6567 55.044 84.219 54.914 83.647 54.914H81.684V57.852ZM83.777 62.025C84.3663 62.025 84.8257 61.8863 85.155 61.609C85.4843 61.3317 85.649 60.946 85.649 60.452C85.649 59.9493 85.4757 59.555 85.129 59.269C84.7823 58.9743 84.3187 58.827 83.738 58.827H81.684V62.025H83.777ZM89.0847 54.719C88.8593 54.719 88.6687 54.641 88.5127 54.485C88.3567 54.329 88.2787 54.1383 88.2787 53.913C88.2787 53.6877 88.3567 53.497 88.5127 53.341C88.6687 53.185 88.8593 53.107 89.0847 53.107C89.3013 53.107 89.4833 53.185 89.6307 53.341C89.7867 53.497 89.8647 53.6877 89.8647 53.913C89.8647 54.1383 89.7867 54.329 89.6307 54.485C89.4833 54.641 89.3013 54.719 89.0847 54.719ZM89.6567 55.876V63H88.4737V55.876H89.6567ZM93.1159 56.851V61.05C93.1159 61.3967 93.1895 61.6437 93.3369 61.791C93.4842 61.9297 93.7399 61.999 94.1039 61.999H94.9749V63H93.9089C93.2502 63 92.7562 62.8483 92.4269 62.545C92.0975 62.2417 91.9329 61.7433 91.9329 61.05V56.851H91.0099V55.876H91.9329V54.082H93.1159V55.876H94.9749V56.851H93.1159ZM95.9662 59.425C95.9662 58.6883 96.1136 58.047 96.4082 57.501C96.7029 56.9463 97.1102 56.5173 97.6302 56.214C98.1589 55.9107 98.7612 55.759 99.4372 55.759C100.313 55.759 101.032 55.9713 101.595 56.396C102.167 56.8207 102.544 57.41 102.726 58.164H101.452C101.331 57.7307 101.093 57.3883 100.737 57.137C100.391 56.8857 99.9572 56.76 99.4372 56.76C98.7612 56.76 98.2152 56.994 97.7992 57.462C97.3832 57.9213 97.1752 58.5757 97.1752 59.425C97.1752 60.283 97.3832 60.946 97.7992 61.414C98.2152 61.882 98.7612 62.116 99.4372 62.116C99.9572 62.116 100.391 61.9947 100.737 61.752C101.084 61.5093 101.322 61.1627 101.452 60.712H102.726C102.536 61.44 102.154 62.025 101.582 62.467C101.01 62.9003 100.295 63.117 99.4372 63.117C98.7612 63.117 98.1589 62.9653 97.6302 62.662C97.1102 62.3587 96.7029 61.9297 96.4082 61.375C96.1136 60.8203 95.9662 60.1703 95.9662 59.425ZM107.412 63.117C106.744 63.117 106.138 62.9653 105.592 62.662C105.054 62.3587 104.63 61.9297 104.318 61.375C104.014 60.8117 103.863 60.1617 103.863 59.425C103.863 58.697 104.019 58.0557 104.331 57.501C104.651 56.9377 105.085 56.5087 105.631 56.214C106.177 55.9107 106.788 55.759 107.464 55.759C108.14 55.759 108.751 55.9107 109.297 56.214C109.843 56.5087 110.272 56.9333 110.584 57.488C110.904 58.0427 111.065 58.6883 111.065 59.425C111.065 60.1617 110.9 60.8117 110.571 61.375C110.25 61.9297 109.812 62.3587 109.258 62.662C108.703 62.9653 108.088 63.117 107.412 63.117ZM107.412 62.077C107.836 62.077 108.235 61.9773 108.608 61.778C108.98 61.5787 109.279 61.2797 109.505 60.881C109.739 60.4823 109.856 59.997 109.856 59.425C109.856 58.853 109.743 58.3677 109.518 57.969C109.292 57.5703 108.998 57.2757 108.634 57.085C108.27 56.8857 107.875 56.786 107.451 56.786C107.017 56.786 106.619 56.8857 106.255 57.085C105.899 57.2757 105.613 57.5703 105.397 57.969C105.18 58.3677 105.072 58.853 105.072 59.425C105.072 60.0057 105.176 60.4953 105.384 60.894C105.6 61.2927 105.886 61.5917 106.242 61.791C106.597 61.9817 106.987 62.077 107.412 62.077ZM113.231 54.719C113.006 54.719 112.815 54.641 112.659 54.485C112.503 54.329 112.425 54.1383 112.425 53.913C112.425 53.6877 112.503 53.497 112.659 53.341C112.815 53.185 113.006 53.107 113.231 53.107C113.448 53.107 113.63 53.185 113.777 53.341C113.933 53.497 114.011 53.6877 114.011 53.913C114.011 54.1383 113.933 54.329 113.777 54.485C113.63 54.641 113.448 54.719 113.231 54.719ZM113.803 55.876V63H112.62V55.876H113.803ZM119.29 55.746C120.157 55.746 120.859 56.0103 121.396 56.539C121.934 57.059 122.202 57.813 122.202 58.801V63H121.032V58.97C121.032 58.2593 120.855 57.7177 120.499 57.345C120.144 56.9637 119.659 56.773 119.043 56.773C118.419 56.773 117.921 56.968 117.548 57.358C117.184 57.748 117.002 58.3157 117.002 59.061V63H115.819V55.876H117.002V56.89C117.236 56.526 117.553 56.2443 117.951 56.045C118.359 55.8457 118.805 55.746 119.29 55.746ZM89.692 74.004V83H88.509V76.292L85.519 83H84.687L81.684 76.279V83H80.501V74.004H81.775L85.103 81.44L88.431 74.004H89.692ZM92.3093 74.719C92.0839 74.719 91.8933 74.641 91.7373 74.485C91.5813 74.329 91.5033 74.1383 91.5033 73.913C91.5033 73.6877 91.5813 73.497 91.7373 73.341C91.8933 73.185 92.0839 73.107 92.3093 73.107C92.5259 73.107 92.7079 73.185 92.8553 73.341C93.0113 73.497 93.0893 73.6877 93.0893 73.913C93.0893 74.1383 93.0113 74.329 92.8553 74.485C92.7079 74.641 92.5259 74.719 92.3093 74.719ZM92.8813 75.876V83H91.6983V75.876H92.8813ZM98.3685 75.746C99.2352 75.746 99.9372 76.0103 100.474 76.539C101.012 77.059 101.28 77.813 101.28 78.801V83H100.11V78.97C100.11 78.2593 99.9328 77.7177 99.5775 77.345C99.2222 76.9637 98.7368 76.773 98.1215 76.773C97.4975 76.773 96.9992 76.968 96.6265 77.358C96.2625 77.748 96.0805 78.3157 96.0805 79.061V83H94.8975V75.876H96.0805V76.89C96.3145 76.526 96.6308 76.2443 97.0295 76.045C97.4368 75.8457 97.8832 75.746 98.3685 75.746ZM103.824 74.719C103.599 74.719 103.408 74.641 103.252 74.485C103.096 74.329 103.018 74.1383 103.018 73.913C103.018 73.6877 103.096 73.497 103.252 73.341C103.408 73.185 103.599 73.107 103.824 73.107C104.041 73.107 104.223 73.185 104.37 73.341C104.526 73.497 104.604 73.6877 104.604 73.913C104.604 74.1383 104.526 74.329 104.37 74.485C104.223 74.641 104.041 74.719 103.824 74.719ZM104.396 75.876V83H103.213V75.876H104.396ZM109.883 75.746C110.75 75.746 111.452 76.0103 111.989 76.539C112.526 77.059 112.795 77.813 112.795 78.801V83H111.625V78.97C111.625 78.2593 111.447 77.7177 111.092 77.345C110.737 76.9637 110.251 76.773 109.636 76.773C109.012 76.773 108.514 76.968 108.141 77.358C107.777 77.748 107.595 78.3157 107.595 79.061V83H106.412V75.876H107.595V76.89C107.829 76.526 108.145 76.2443 108.544 76.045C108.951 75.8457 109.398 75.746 109.883 75.746ZM117.666 75.759C118.281 75.759 118.818 75.8933 119.278 76.162C119.746 76.4307 120.092 76.7687 120.318 77.176V75.876H121.514V83.156C121.514 83.806 121.375 84.3823 121.098 84.885C120.82 85.3963 120.422 85.795 119.902 86.081C119.39 86.367 118.792 86.51 118.108 86.51C117.172 86.51 116.392 86.289 115.768 85.847C115.144 85.405 114.775 84.8027 114.663 84.04H115.833C115.963 84.4733 116.231 84.82 116.639 85.08C117.046 85.3487 117.536 85.483 118.108 85.483C118.758 85.483 119.286 85.2793 119.694 84.872C120.11 84.4647 120.318 83.8927 120.318 83.156V81.661C120.084 82.077 119.737 82.4237 119.278 82.701C118.818 82.9783 118.281 83.117 117.666 83.117C117.033 83.117 116.457 82.961 115.937 82.649C115.425 82.337 115.022 81.8993 114.728 81.336C114.433 80.7727 114.286 80.1313 114.286 79.412C114.286 78.684 114.433 78.047 114.728 77.501C115.022 76.9463 115.425 76.5173 115.937 76.214C116.457 75.9107 117.033 75.759 117.666 75.759ZM120.318 79.425C120.318 78.8877 120.209 78.4197 119.993 78.021C119.776 77.6223 119.481 77.319 119.109 77.111C118.745 76.8943 118.342 76.786 117.9 76.786C117.458 76.786 117.055 76.89 116.691 77.098C116.327 77.306 116.036 77.6093 115.82 78.008C115.603 78.4067 115.495 78.8747 115.495 79.412C115.495 79.958 115.603 80.4347 115.82 80.842C116.036 81.2407 116.327 81.5483 116.691 81.765C117.055 81.973 117.458 82.077 117.9 82.077C118.342 82.077 118.745 81.973 119.109 81.765C119.481 81.5483 119.776 81.2407 119.993 80.842C120.209 80.4347 120.318 79.9623 120.318 79.425Z" fill="#838F9F"/>
</g>
<g filter="url(#filter1_dd_364_19943)">
<rect x="364.802" y="97.9248" width="90.1982" height="26.8004" rx="5" fill="white"/>
<circle cx="373.401" cy="111.325" r="4" fill="#FFB36D"/>
<path d="M396.593 106.829V115.825H395.41V109.117L392.42 115.825H391.588L388.585 109.104V115.825H387.402V106.829H388.676L392.004 114.265L395.332 106.829H396.593ZM398.157 112.237C398.157 111.509 398.304 110.872 398.599 110.326C398.894 109.771 399.297 109.342 399.808 109.039C400.328 108.736 400.904 108.584 401.537 108.584C402.161 108.584 402.703 108.718 403.162 108.987C403.621 109.256 403.964 109.594 404.189 110.001V108.701H405.385V115.825H404.189V114.499C403.955 114.915 403.604 115.262 403.136 115.539C402.677 115.808 402.139 115.942 401.524 115.942C400.891 115.942 400.319 115.786 399.808 115.474C399.297 115.162 398.894 114.724 398.599 114.161C398.304 113.598 398.157 112.956 398.157 112.237ZM404.189 112.25C404.189 111.713 404.081 111.245 403.864 110.846C403.647 110.447 403.353 110.144 402.98 109.936C402.616 109.719 402.213 109.611 401.771 109.611C401.329 109.611 400.926 109.715 400.562 109.923C400.198 110.131 399.908 110.434 399.691 110.833C399.474 111.232 399.366 111.7 399.366 112.237C399.366 112.783 399.474 113.26 399.691 113.667C399.908 114.066 400.198 114.373 400.562 114.59C400.926 114.798 401.329 114.902 401.771 114.902C402.213 114.902 402.616 114.798 402.98 114.59C403.353 114.373 403.647 114.066 403.864 113.667C404.081 113.26 404.189 112.787 404.189 112.25ZM408.567 109.858C408.775 109.451 409.07 109.134 409.451 108.909C409.841 108.684 410.314 108.571 410.868 108.571V109.793H410.556C409.23 109.793 408.567 110.512 408.567 111.951V115.825H407.384V108.701H408.567V109.858ZM416.212 115.825L413.417 112.679V115.825H412.234V106.205H413.417V111.86L416.16 108.701H417.811L414.457 112.25L417.824 115.825H416.212ZM425.424 111.99C425.424 112.215 425.411 112.454 425.385 112.705H419.691C419.735 113.407 419.973 113.957 420.406 114.356C420.848 114.746 421.381 114.941 422.005 114.941C422.517 114.941 422.941 114.824 423.279 114.59C423.626 114.347 423.869 114.027 424.007 113.628H425.281C425.091 114.313 424.709 114.872 424.137 115.305C423.565 115.73 422.855 115.942 422.005 115.942C421.329 115.942 420.723 115.79 420.185 115.487C419.657 115.184 419.241 114.755 418.937 114.2C418.634 113.637 418.482 112.987 418.482 112.25C418.482 111.513 418.63 110.868 418.924 110.313C419.219 109.758 419.631 109.334 420.159 109.039C420.697 108.736 421.312 108.584 422.005 108.584C422.681 108.584 423.279 108.731 423.799 109.026C424.319 109.321 424.718 109.728 424.995 110.248C425.281 110.759 425.424 111.34 425.424 111.99ZM424.202 111.743C424.202 111.292 424.103 110.907 423.903 110.586C423.704 110.257 423.431 110.01 423.084 109.845C422.746 109.672 422.369 109.585 421.953 109.585C421.355 109.585 420.844 109.776 420.419 110.157C420.003 110.538 419.765 111.067 419.704 111.743H424.202ZM428.429 109.676V113.875C428.429 114.222 428.503 114.469 428.65 114.616C428.797 114.755 429.053 114.824 429.417 114.824H430.288V115.825H429.222C428.563 115.825 428.069 115.673 427.74 115.37C427.411 115.067 427.246 114.568 427.246 113.875V109.676H426.323V108.701H427.246V106.907H428.429V108.701H430.288V109.676H428.429ZM432.332 107.544C432.107 107.544 431.916 107.466 431.76 107.31C431.604 107.154 431.526 106.963 431.526 106.738C431.526 106.513 431.604 106.322 431.76 106.166C431.916 106.01 432.107 105.932 432.332 105.932C432.549 105.932 432.731 106.01 432.878 106.166C433.034 106.322 433.112 106.513 433.112 106.738C433.112 106.963 433.034 107.154 432.878 107.31C432.731 107.466 432.549 107.544 432.332 107.544ZM432.904 108.701V115.825H431.721V108.701H432.904ZM438.391 108.571C439.258 108.571 439.96 108.835 440.497 109.364C441.035 109.884 441.303 110.638 441.303 111.626V115.825H440.133V111.795C440.133 111.084 439.956 110.543 439.6 110.17C439.245 109.789 438.76 109.598 438.144 109.598C437.52 109.598 437.022 109.793 436.649 110.183C436.285 110.573 436.103 111.141 436.103 111.886V115.825H434.92V108.701H436.103V109.715C436.337 109.351 436.654 109.069 437.052 108.87C437.46 108.671 437.906 108.571 438.391 108.571ZM446.174 108.584C446.789 108.584 447.327 108.718 447.786 108.987C448.254 109.256 448.601 109.594 448.826 110.001V108.701H450.022V115.981C450.022 116.631 449.883 117.207 449.606 117.71C449.329 118.221 448.93 118.62 448.41 118.906C447.899 119.192 447.301 119.335 446.616 119.335C445.68 119.335 444.9 119.114 444.276 118.672C443.652 118.23 443.284 117.628 443.171 116.865H444.341C444.471 117.298 444.74 117.645 445.147 117.905C445.554 118.174 446.044 118.308 446.616 118.308C447.266 118.308 447.795 118.104 448.202 117.697C448.618 117.29 448.826 116.718 448.826 115.981V114.486C448.592 114.902 448.245 115.249 447.786 115.526C447.327 115.803 446.789 115.942 446.174 115.942C445.541 115.942 444.965 115.786 444.445 115.474C443.934 115.162 443.531 114.724 443.236 114.161C442.941 113.598 442.794 112.956 442.794 112.237C442.794 111.509 442.941 110.872 443.236 110.326C443.531 109.771 443.934 109.342 444.445 109.039C444.965 108.736 445.541 108.584 446.174 108.584ZM448.826 112.25C448.826 111.713 448.718 111.245 448.501 110.846C448.284 110.447 447.99 110.144 447.617 109.936C447.253 109.719 446.85 109.611 446.408 109.611C445.966 109.611 445.563 109.715 445.199 109.923C444.835 110.131 444.545 110.434 444.328 110.833C444.111 111.232 444.003 111.7 444.003 112.237C444.003 112.783 444.111 113.26 444.328 113.667C444.545 114.066 444.835 114.373 445.199 114.59C445.563 114.798 445.966 114.902 446.408 114.902C446.85 114.902 447.253 114.798 447.617 114.59C447.99 114.373 448.284 114.066 448.501 113.667C448.718 113.26 448.826 112.787 448.826 112.25Z" fill="#838F9F"/>
</g>
<g filter="url(#filter2_dd_364_19943)">
<rect x="282" y="392" width="113" height="26" rx="5" fill="white"/>
<circle cx="295.5" cy="405" r="4" fill="#FFC997"/>
<path d="M309.059 404.963C309.059 404.079 309.258 403.286 309.657 402.584C310.056 401.873 310.597 401.319 311.282 400.92C311.975 400.521 312.742 400.322 313.583 400.322C314.571 400.322 315.433 400.56 316.17 401.037C316.907 401.514 317.444 402.19 317.782 403.065H316.365C316.114 402.519 315.75 402.099 315.273 401.804C314.805 401.509 314.242 401.362 313.583 401.362C312.95 401.362 312.383 401.509 311.88 401.804C311.377 402.099 310.983 402.519 310.697 403.065C310.411 403.602 310.268 404.235 310.268 404.963C310.268 405.682 310.411 406.315 310.697 406.861C310.983 407.398 311.377 407.814 311.88 408.109C312.383 408.404 312.95 408.551 313.583 408.551C314.242 408.551 314.805 408.408 315.273 408.122C315.75 407.827 316.114 407.407 316.365 406.861H317.782C317.444 407.728 316.907 408.399 316.17 408.876C315.433 409.344 314.571 409.578 313.583 409.578C312.742 409.578 311.975 409.383 311.282 408.993C310.597 408.594 310.056 408.044 309.657 407.342C309.258 406.64 309.059 405.847 309.059 404.963ZM322.65 409.617C321.983 409.617 321.376 409.465 320.83 409.162C320.293 408.859 319.868 408.43 319.556 407.875C319.253 407.312 319.101 406.662 319.101 405.925C319.101 405.197 319.257 404.556 319.569 404.001C319.89 403.438 320.323 403.009 320.869 402.714C321.415 402.411 322.026 402.259 322.702 402.259C323.378 402.259 323.989 402.411 324.535 402.714C325.081 403.009 325.51 403.433 325.822 403.988C326.143 404.543 326.303 405.188 326.303 405.925C326.303 406.662 326.138 407.312 325.809 407.875C325.488 408.43 325.051 408.859 324.496 409.162C323.941 409.465 323.326 409.617 322.65 409.617ZM322.65 408.577C323.075 408.577 323.473 408.477 323.846 408.278C324.219 408.079 324.518 407.78 324.743 407.381C324.977 406.982 325.094 406.497 325.094 405.925C325.094 405.353 324.981 404.868 324.756 404.469C324.531 404.07 324.236 403.776 323.872 403.585C323.508 403.386 323.114 403.286 322.689 403.286C322.256 403.286 321.857 403.386 321.493 403.585C321.138 403.776 320.852 404.07 320.635 404.469C320.418 404.868 320.31 405.353 320.31 405.925C320.31 406.506 320.414 406.995 320.622 407.394C320.839 407.793 321.125 408.092 321.48 408.291C321.835 408.482 322.225 408.577 322.65 408.577ZM336.425 402.246C336.98 402.246 337.474 402.363 337.907 402.597C338.341 402.822 338.683 403.165 338.934 403.624C339.186 404.083 339.311 404.642 339.311 405.301V409.5H338.141V405.47C338.141 404.759 337.964 404.218 337.608 403.845C337.262 403.464 336.789 403.273 336.191 403.273C335.576 403.273 335.086 403.472 334.722 403.871C334.358 404.261 334.176 404.829 334.176 405.574V409.5H333.006V405.47C333.006 404.759 332.829 404.218 332.473 403.845C332.127 403.464 331.654 403.273 331.056 403.273C330.441 403.273 329.951 403.472 329.587 403.871C329.223 404.261 329.041 404.829 329.041 405.574V409.5H327.858V402.376H329.041V403.403C329.275 403.03 329.587 402.744 329.977 402.545C330.376 402.346 330.814 402.246 331.29 402.246C331.888 402.246 332.417 402.38 332.876 402.649C333.336 402.918 333.678 403.312 333.903 403.832C334.103 403.329 334.432 402.939 334.891 402.662C335.351 402.385 335.862 402.246 336.425 402.246ZM349.819 402.246C350.374 402.246 350.868 402.363 351.301 402.597C351.734 402.822 352.077 403.165 352.328 403.624C352.579 404.083 352.705 404.642 352.705 405.301V409.5H351.535V405.47C351.535 404.759 351.357 404.218 351.002 403.845C350.655 403.464 350.183 403.273 349.585 403.273C348.97 403.273 348.48 403.472 348.116 403.871C347.752 404.261 347.57 404.829 347.57 405.574V409.5H346.4V405.47C346.4 404.759 346.222 404.218 345.867 403.845C345.52 403.464 345.048 403.273 344.45 403.273C343.835 403.273 343.345 403.472 342.981 403.871C342.617 404.261 342.435 404.829 342.435 405.574V409.5H341.252V402.376H342.435V403.403C342.669 403.03 342.981 402.744 343.371 402.545C343.77 402.346 344.207 402.246 344.684 402.246C345.282 402.246 345.811 402.38 346.27 402.649C346.729 402.918 347.072 403.312 347.297 403.832C347.496 403.329 347.826 402.939 348.285 402.662C348.744 402.385 349.256 402.246 349.819 402.246ZM360.964 402.376V409.5H359.781V408.447C359.555 408.811 359.239 409.097 358.832 409.305C358.433 409.504 357.991 409.604 357.506 409.604C356.951 409.604 356.453 409.491 356.011 409.266C355.569 409.032 355.218 408.685 354.958 408.226C354.706 407.767 354.581 407.208 354.581 406.549V402.376H355.751V406.393C355.751 407.095 355.928 407.637 356.284 408.018C356.639 408.391 357.124 408.577 357.74 408.577C358.372 408.577 358.871 408.382 359.235 407.992C359.599 407.602 359.781 407.034 359.781 406.289V402.376H360.964ZM366.432 402.246C367.299 402.246 368.001 402.51 368.538 403.039C369.075 403.559 369.344 404.313 369.344 405.301V409.5H368.174V405.47C368.174 404.759 367.996 404.218 367.641 403.845C367.286 403.464 366.8 403.273 366.185 403.273C365.561 403.273 365.063 403.468 364.69 403.858C364.326 404.248 364.144 404.816 364.144 405.561V409.5H362.961V402.376H364.144V403.39C364.378 403.026 364.694 402.744 365.093 402.545C365.5 402.346 365.947 402.246 366.432 402.246ZM371.887 401.219C371.662 401.219 371.471 401.141 371.315 400.985C371.159 400.829 371.081 400.638 371.081 400.413C371.081 400.188 371.159 399.997 371.315 399.841C371.471 399.685 371.662 399.607 371.887 399.607C372.104 399.607 372.286 399.685 372.433 399.841C372.589 399.997 372.667 400.188 372.667 400.413C372.667 400.638 372.589 400.829 372.433 400.985C372.286 401.141 372.104 401.219 371.887 401.219ZM372.459 402.376V409.5H371.276V402.376H372.459ZM375.919 403.351V407.55C375.919 407.897 375.992 408.144 376.14 408.291C376.287 408.43 376.543 408.499 376.907 408.499H377.778V409.5H376.712C376.053 409.5 375.559 409.348 375.23 409.045C374.9 408.742 374.736 408.243 374.736 407.55V403.351H373.813V402.376H374.736V400.582H375.919V402.376H377.778V403.351H375.919ZM385.347 402.376L381.057 412.854H379.835L381.239 409.422L378.366 402.376H379.679L381.915 408.148L384.125 402.376H385.347Z" fill="#838F9F"/>
</g>
<g filter="url(#filter3_dd_364_19943)">
<rect x="54.119" y="383.452" width="95.2093" height="26.8004" rx="5" fill="white"/>
<circle cx="73.2236" cy="396.852" r="4" fill="#FFD9B5"/>
<path d="M90.0976 401.443C89.4996 401.443 88.9622 401.339 88.4856 401.131C88.0176 400.915 87.6492 400.62 87.3806 400.247C87.1119 399.866 86.9732 399.428 86.9646 398.934H88.2256C88.2689 399.359 88.4422 399.719 88.7456 400.013C89.0576 400.299 89.5082 400.442 90.0976 400.442C90.6609 400.442 91.1029 400.304 91.4236 400.026C91.7529 399.74 91.9176 399.376 91.9176 398.934C91.9176 398.588 91.8222 398.306 91.6316 398.089C91.4409 397.873 91.2026 397.708 90.9166 397.595C90.6306 397.483 90.2449 397.361 89.7596 397.231C89.1616 397.075 88.6806 396.919 88.3166 396.763C87.9612 396.607 87.6536 396.365 87.3936 396.035C87.1422 395.697 87.0166 395.247 87.0166 394.683C87.0166 394.189 87.1422 393.752 87.3936 393.37C87.6449 392.989 87.9959 392.694 88.4466 392.486C88.9059 392.278 89.4302 392.174 90.0196 392.174C90.8689 392.174 91.5622 392.387 92.0996 392.811C92.6456 393.236 92.9532 393.799 93.0226 394.501H91.7226C91.6792 394.155 91.4972 393.851 91.1766 393.591C90.8559 393.323 90.4312 393.188 89.9026 393.188C89.4086 393.188 89.0056 393.318 88.6936 393.578C88.3816 393.83 88.2256 394.185 88.2256 394.644C88.2256 394.974 88.3166 395.242 88.4986 395.45C88.6892 395.658 88.9189 395.819 89.1876 395.931C89.4649 396.035 89.8506 396.157 90.3446 396.295C90.9426 396.46 91.4236 396.625 91.7876 396.789C92.1516 396.945 92.4636 397.192 92.7236 397.53C92.9836 397.86 93.1136 398.31 93.1136 398.882C93.1136 399.324 92.9966 399.74 92.7626 400.13C92.5286 400.52 92.1819 400.837 91.7226 401.079C91.2632 401.322 90.7216 401.443 90.0976 401.443ZM96.2975 395.203V399.402C96.2975 399.749 96.3711 399.996 96.5185 400.143C96.6658 400.282 96.9215 400.351 97.2855 400.351H98.1565V401.352H97.0905C96.4318 401.352 95.9378 401.201 95.6085 400.897C95.2791 400.594 95.1145 400.096 95.1145 399.402V395.203H94.1915V394.228H95.1145V392.434H96.2975V394.228H98.1565V395.203H96.2975ZM99.1478 397.764C99.1478 397.036 99.2951 396.399 99.5898 395.853C99.8845 395.299 100.287 394.87 100.799 394.566C101.319 394.263 101.895 394.111 102.528 394.111C103.152 394.111 103.693 394.246 104.153 394.514C104.612 394.783 104.954 395.121 105.18 395.528V394.228H106.376V401.352H105.18V400.026C104.946 400.442 104.595 400.789 104.127 401.066C103.667 401.335 103.13 401.469 102.515 401.469C101.882 401.469 101.31 401.313 100.799 401.001C100.287 400.689 99.8845 400.252 99.5898 399.688C99.2951 399.125 99.1478 398.484 99.1478 397.764ZM105.18 397.777C105.18 397.24 105.071 396.772 104.855 396.373C104.638 395.975 104.343 395.671 103.971 395.463C103.607 395.247 103.204 395.138 102.762 395.138C102.32 395.138 101.917 395.242 101.553 395.45C101.189 395.658 100.898 395.962 100.682 396.36C100.465 396.759 100.357 397.227 100.357 397.764C100.357 398.31 100.465 398.787 100.682 399.194C100.898 399.593 101.189 399.901 101.553 400.117C101.917 400.325 102.32 400.429 102.762 400.429C103.204 400.429 103.607 400.325 103.971 400.117C104.343 399.901 104.638 399.593 104.855 399.194C105.071 398.787 105.18 398.315 105.18 397.777ZM112.353 401.352L109.558 398.206V401.352H108.375V391.732H109.558V397.387L112.301 394.228H113.952L110.598 397.777L113.965 401.352H112.353ZM115.676 393.071C115.451 393.071 115.26 392.993 115.104 392.837C114.948 392.681 114.87 392.491 114.87 392.265C114.87 392.04 114.948 391.849 115.104 391.693C115.26 391.537 115.451 391.459 115.676 391.459C115.893 391.459 116.075 391.537 116.222 391.693C116.378 391.849 116.456 392.04 116.456 392.265C116.456 392.491 116.378 392.681 116.222 392.837C116.075 392.993 115.893 393.071 115.676 393.071ZM116.248 394.228V401.352H115.065V394.228H116.248ZM121.736 394.098C122.602 394.098 123.304 394.363 123.842 394.891C124.379 395.411 124.648 396.165 124.648 397.153V401.352H123.478V397.322C123.478 396.612 123.3 396.07 122.945 395.697C122.589 395.316 122.104 395.125 121.489 395.125C120.865 395.125 120.366 395.32 119.994 395.71C119.63 396.1 119.448 396.668 119.448 397.413V401.352H118.265V394.228H119.448V395.242C119.682 394.878 119.998 394.597 120.397 394.397C120.804 394.198 121.25 394.098 121.736 394.098ZM129.518 394.111C130.133 394.111 130.671 394.246 131.13 394.514C131.598 394.783 131.945 395.121 132.17 395.528V394.228H133.366V401.508C133.366 402.158 133.227 402.735 132.95 403.237C132.673 403.749 132.274 404.147 131.754 404.433C131.243 404.719 130.645 404.862 129.96 404.862C129.024 404.862 128.244 404.641 127.62 404.199C126.996 403.757 126.628 403.155 126.515 402.392H127.685C127.815 402.826 128.084 403.172 128.491 403.432C128.898 403.701 129.388 403.835 129.96 403.835C130.61 403.835 131.139 403.632 131.546 403.224C131.962 402.817 132.17 402.245 132.17 401.508V400.013C131.936 400.429 131.589 400.776 131.13 401.053C130.671 401.331 130.133 401.469 129.518 401.469C128.885 401.469 128.309 401.313 127.789 401.001C127.278 400.689 126.875 400.252 126.58 399.688C126.285 399.125 126.138 398.484 126.138 397.764C126.138 397.036 126.285 396.399 126.58 395.853C126.875 395.299 127.278 394.87 127.789 394.566C128.309 394.263 128.885 394.111 129.518 394.111ZM132.17 397.777C132.17 397.24 132.062 396.772 131.845 396.373C131.628 395.975 131.334 395.671 130.961 395.463C130.597 395.247 130.194 395.138 129.752 395.138C129.31 395.138 128.907 395.242 128.543 395.45C128.179 395.658 127.889 395.962 127.672 396.36C127.455 396.759 127.347 397.227 127.347 397.764C127.347 398.31 127.455 398.787 127.672 399.194C127.889 399.593 128.179 399.901 128.543 400.117C128.907 400.325 129.31 400.429 129.752 400.429C130.194 400.429 130.597 400.325 130.961 400.117C131.334 399.901 131.628 399.593 131.845 399.194C132.062 398.787 132.17 398.315 132.17 397.777Z" fill="#838F9F"/>
</g>
<defs>
<filter id="filter0_dd_364_19943" x="47" y="37" width="95" height="65" filterUnits="userSpaceOnUse" color-interpolation-filters="sRGB">
<feFlood flood-opacity="0" result="BackgroundImageFix"/>
<feColorMatrix in="SourceAlpha" type="matrix" values="0 0 0 0 0 0 0 0 0 0 0 0 0 0 0 0 0 0 127 0" result="hardAlpha"/>
<feOffset dy="1"/>
<feGaussianBlur stdDeviation="1"/>
<feColorMatrix type="matrix" values="0 0 0 0 0.0627451 0 0 0 0 0.0941176 0 0 0 0 0.156863 0 0 0 0.06 0"/>
<feBlend mode="normal" in2="BackgroundImageFix" result="effect1_dropShadow_364_19943"/>
<feColorMatrix in="SourceAlpha" type="matrix" values="0 0 0 0 0 0 0 0 0 0 0 0 0 0 0 0 0 0 127 0" result="hardAlpha"/>
<feOffset dy="1"/>
<feGaussianBlur stdDeviation="1.5"/>
<feColorMatrix type="matrix" values="0 0 0 0 0.0627451 0 0 0 0 0.0941176 0 0 0 0 0.156863 0 0 0 0.1 0"/>
<feBlend mode="normal" in2="effect1_dropShadow_364_19943" result="effect2_dropShadow_364_19943"/>
<feBlend mode="normal" in="SourceGraphic" in2="effect2_dropShadow_364_19943" result="shape"/>
</filter>
<filter id="filter1_dd_364_19943" x="361.802" y="95.9248" width="96.1982" height="32.8005" filterUnits="userSpaceOnUse" color-interpolation-filters="sRGB">
<feFlood flood-opacity="0" result="BackgroundImageFix"/>
<feColorMatrix in="SourceAlpha" type="matrix" values="0 0 0 0 0 0 0 0 0 0 0 0 0 0 0 0 0 0 127 0" result="hardAlpha"/>
<feOffset dy="1"/>
<feGaussianBlur stdDeviation="1"/>
<feColorMatrix type="matrix" values="0 0 0 0 0.0627451 0 0 0 0 0.0941176 0 0 0 0 0.156863 0 0 0 0.06 0"/>
<feBlend mode="normal" in2="BackgroundImageFix" result="effect1_dropShadow_364_19943"/>
<feColorMatrix in="SourceAlpha" type="matrix" values="0 0 0 0 0 0 0 0 0 0 0 0 0 0 0 0 0 0 127 0" result="hardAlpha"/>
<feOffset dy="1"/>
<feGaussianBlur stdDeviation="1.5"/>
<feColorMatrix type="matrix" values="0 0 0 0 0.0627451 0 0 0 0 0.0941176 0 0 0 0 0.156863 0 0 0 0.1 0"/>
<feBlend mode="normal" in2="effect1_dropShadow_364_19943" result="effect2_dropShadow_364_19943"/>
<feBlend mode="normal" in="SourceGraphic" in2="effect2_dropShadow_364_19943" result="shape"/>
</filter>
<filter id="filter2_dd_364_19943" x="279" y="390" width="119" height="32" filterUnits="userSpaceOnUse" color-interpolation-filters="sRGB">
<feFlood flood-opacity="0" result="BackgroundImageFix"/>
<feColorMatrix in="SourceAlpha" type="matrix" values="0 0 0 0 0 0 0 0 0 0 0 0 0 0 0 0 0 0 127 0" result="hardAlpha"/>
<feOffset dy="1"/>
<feGaussianBlur stdDeviation="1"/>
<feColorMatrix type="matrix" values="0 0 0 0 0.0627451 0 0 0 0 0.0941176 0 0 0 0 0.156863 0 0 0 0.06 0"/>
<feBlend mode="normal" in2="BackgroundImageFix" result="effect1_dropShadow_364_19943"/>
<feColorMatrix in="SourceAlpha" type="matrix" values="0 0 0 0 0 0 0 0 0 0 0 0 0 0 0 0 0 0 127 0" result="hardAlpha"/>
<feOffset dy="1"/>
<feGaussianBlur stdDeviation="1.5"/>
<feColorMatrix type="matrix" values="0 0 0 0 0.0627451 0 0 0 0 0.0941176 0 0 0 0 0.156863 0 0 0 0.1 0"/>
<feBlend mode="normal" in2="effect1_dropShadow_364_19943" result="effect2_dropShadow_364_19943"/>
<feBlend mode="normal" in="SourceGraphic" in2="effect2_dropShadow_364_19943" result="shape"/>
</filter>
<filter id="filter3_dd_364_19943" x="51.119" y="381.452" width="101.209" height="32.8005" filterUnits="userSpaceOnUse" color-interpolation-filters="sRGB">
<feFlood flood-opacity="0" result="BackgroundImageFix"/>
<feColorMatrix in="SourceAlpha" type="matrix" values="0 0 0 0 0 0 0 0 0 0 0 0 0 0 0 0 0 0 127 0" result="hardAlpha"/>
<feOffset dy="1"/>
<feGaussianBlur stdDeviation="1"/>
<feColorMatrix type="matrix" values="0 0 0 0 0.0627451 0 0 0 0 0.0941176 0 0 0 0 0.156863 0 0 0 0.06 0"/>
<feBlend mode="normal" in2="BackgroundImageFix" result="effect1_dropShadow_364_19943"/>
<feColorMatrix in="SourceAlpha" type="matrix" values="0 0 0 0 0 0 0 0 0 0 0 0 0 0 0 0 0 0 127 0" result="hardAlpha"/>
<feOffset dy="1"/>
<feGaussianBlur stdDeviation="1.5"/>
<feColorMatrix type="matrix" values="0 0 0 0 0.0627451 0 0 0 0 0.0941176 0 0 0 0 0.156863 0 0 0 0.1 0"/>
<feBlend mode="normal" in2="effect1_dropShadow_364_19943" result="effect2_dropShadow_364_19943"/>
<feBlend mode="normal" in="SourceGraphic" in2="effect2_dropShadow_364_19943" result="shape"/>
</filter>
</defs>
</svg>
