<svg width="25" height="24" viewBox="0 0 25 24" fill="none" xmlns="http://www.w3.org/2000/svg">
<rect x="1.07021" y="0.35" width="23.3" height="23.3" rx="11.65" fill="white"/>
<g clip-path="url(#clip0_54_11718)">
<path d="M17.8642 8.81821C17.4785 8.97892 17.0928 9.10749 16.6428 9.13963C17.0928 8.88249 17.4142 8.46463 17.575 7.98249C17.1571 8.23963 16.7071 8.40035 16.225 8.49678C15.8392 8.07892 15.2928 7.82178 14.7142 7.82178C13.5571 7.82178 12.5928 8.75392 12.5928 9.94321C12.5928 10.1039 12.625 10.2646 12.6571 10.4253C10.8892 10.3289 9.34639 9.49321 8.28567 8.20749C8.09282 8.52892 7.99639 8.88249 7.99639 9.26821C7.99639 10.0075 8.3821 10.6503 8.92853 11.0361C8.57496 11.0361 8.25353 10.9396 7.96424 10.7789V10.8111C7.96424 11.8396 8.70353 12.6753 9.66782 12.8682C9.47496 12.9003 9.31424 12.9325 9.12139 12.9325C8.99282 12.9325 8.86424 12.9325 8.73567 12.9003C8.99282 13.7361 9.79639 14.3468 10.6964 14.3789C9.98924 14.9575 9.0571 15.2789 8.06067 15.2789C7.89996 15.2789 7.7071 15.2789 7.54639 15.2468C8.51067 15.8253 9.63567 16.1789 10.825 16.1789C14.7142 16.1789 16.8357 12.9646 16.8357 10.1682C16.8357 10.0718 16.8357 9.97535 16.8357 9.91106C17.2214 9.58963 17.575 9.23606 17.8642 8.81821Z" fill="#7A868D"/>
</g>
<rect x="1.07021" y="0.35" width="23.3" height="23.3" rx="11.65" stroke="#DFE6EB" stroke-width="0.7"/>
<defs>
<clipPath id="clip0_54_11718">
<rect width="10.2857" height="10.2857" fill="white" transform="translate(7.57764 6.85718)"/>
</clipPath>
</defs>
</svg>
